<?xml version="1.0" encoding="UTF-8"?>
<svg width="512" height="512" viewBox="0 0 512 512" xmlns="http://www.w3.org/2000/svg">
  <defs>
    <linearGradient id="grad1" x1="0%" y1="0%" x2="100%" y2="100%">
      <stop offset="0%" style="stop-color:#4F46E5;stop-opacity:1" />
      <stop offset="100%" style="stop-color:#7C3AED;stop-opacity:1" />
    </linearGradient>
  </defs>
  
  <!-- 背景圆角矩形 -->
  <rect width="512" height="512" rx="76.8" ry="76.8" fill="url(#grad1)"/>
  
  <!-- 计算器图标 -->
  <g transform="translate(102.4, 102.4)">
    <!-- 计算器主体 -->
    <rect x="0" y="0" width="307.2" height="307.2" rx="25.6" fill="white" opacity="0.9"/>
    
    <!-- 显示屏 -->
    <rect x="25.6" y="25.6" width="256" height="76.8" rx="10.24" fill="#1F2937"/>
    
    <!-- 按钮网格 -->
    <g fill="#4F46E5">
      <!-- 第一行 -->
      <circle cx="51.2" cy="153.6" r="15.36"/>
      <circle cx="102.4" cy="153.6" r="15.36"/>
      <circle cx="153.6" cy="153.6" r="15.36"/>
      <circle cx="230.4" cy="153.6" r="15.36"/>
      
      <!-- 第二行 -->
      <circle cx="51.2" cy="204.8" r="15.36"/>
      <circle cx="102.4" cy="204.8" r="15.36"/>
      <circle cx="153.6" cy="204.8" r="15.36"/>
      <circle cx="230.4" cy="204.8" r="15.36"/>
      
      <!-- 第三行 -->
      <circle cx="51.2" cy="256" r="15.36"/>
      <circle cx="102.4" cy="256" r="15.36"/>
      <circle cx="153.6" cy="256" r="15.36"/>
      <rect x="215.04" y="240.64" width="30.72" height="30.72" rx="5.12" fill="#EF4444"/>
    </g>
    
    <!-- 品牌文字 -->
    <text x="153.6" y="66.56" text-anchor="middle" fill="white" font-family="Arial, sans-serif" font-size="20.48" font-weight="bold">ZR</text>
  </g>
  
  <!-- 装饰元素 -->
  <circle cx="435.2" cy="76.8" r="15.36" fill="white" opacity="0.3"/>
  <circle cx="76.8" cy="435.2" r="10.24" fill="white" opacity="0.2"/>
</svg>