<?xml version="1.0" encoding="UTF-8"?>
<svg width="32" height="32" viewBox="0 0 32 32" xmlns="http://www.w3.org/2000/svg">
  <defs>
    <linearGradient id="grad1" x1="0%" y1="0%" x2="100%" y2="100%">
      <stop offset="0%" style="stop-color:#4F46E5;stop-opacity:1" />
      <stop offset="100%" style="stop-color:#7C3AED;stop-opacity:1" />
    </linearGradient>
  </defs>
  
  <!-- 背景圆角矩形 -->
  <rect width="32" height="32" rx="4.8" ry="4.8" fill="url(#grad1)"/>
  
  <!-- 计算器图标 -->
  <g transform="translate(6.4, 6.4)">
    <!-- 计算器主体 -->
    <rect x="0" y="0" width="19.2" height="19.2" rx="1.6" fill="white" opacity="0.9"/>
    
    <!-- 显示屏 -->
    <rect x="1.6" y="1.6" width="16" height="4.8" rx="0.64" fill="#1F2937"/>
    
    <!-- 按钮网格 -->
    <g fill="#4F46E5">
      <!-- 第一行 -->
      <circle cx="3.2" cy="9.6" r="0.96"/>
      <circle cx="6.4" cy="9.6" r="0.96"/>
      <circle cx="9.6" cy="9.6" r="0.96"/>
      <circle cx="14.4" cy="9.6" r="0.96"/>
      
      <!-- 第二行 -->
      <circle cx="3.2" cy="12.8" r="0.96"/>
      <circle cx="6.4" cy="12.8" r="0.96"/>
      <circle cx="9.6" cy="12.8" r="0.96"/>
      <circle cx="14.4" cy="12.8" r="0.96"/>
      
      <!-- 第三行 -->
      <circle cx="3.2" cy="16" r="0.96"/>
      <circle cx="6.4" cy="16" r="0.96"/>
      <circle cx="9.6" cy="16" r="0.96"/>
      <rect x="13.44" y="15.04" width="1.92" height="1.92" rx="0.32" fill="#EF4444"/>
    </g>
    
    <!-- 品牌文字 -->
    <text x="9.6" y="4.16" text-anchor="middle" fill="white" font-family="Arial, sans-serif" font-size="1.28" font-weight="bold">ZR</text>
  </g>
  
  <!-- 装饰元素 -->
  <circle cx="27.2" cy="4.8" r="0.96" fill="white" opacity="0.3"/>
  <circle cx="4.8" cy="27.2" r="0.64" fill="white" opacity="0.2"/>
</svg>