<?xml version="1.0" encoding="UTF-8"?>
<svg width="192" height="192" viewBox="0 0 192 192" xmlns="http://www.w3.org/2000/svg">
  <defs>
    <linearGradient id="grad1" x1="0%" y1="0%" x2="100%" y2="100%">
      <stop offset="0%" style="stop-color:#4F46E5;stop-opacity:1" />
      <stop offset="100%" style="stop-color:#7C3AED;stop-opacity:1" />
    </linearGradient>
  </defs>
  
  <!-- 背景圆角矩形 -->
  <rect width="192" height="192" rx="28.799999999999997" ry="28.799999999999997" fill="url(#grad1)"/>
  
  <!-- 计算器图标 -->
  <g transform="translate(38.400000000000006, 38.400000000000006)">
    <!-- 计算器主体 -->
    <rect x="0" y="0" width="115.19999999999999" height="115.19999999999999" rx="9.600000000000001" fill="white" opacity="0.9"/>
    
    <!-- 显示屏 -->
    <rect x="9.600000000000001" y="9.600000000000001" width="96" height="28.799999999999997" rx="3.84" fill="#1F2937"/>
    
    <!-- 按钮网格 -->
    <g fill="#4F46E5">
      <!-- 第一行 -->
      <circle cx="19.200000000000003" cy="57.599999999999994" r="5.76"/>
      <circle cx="38.400000000000006" cy="57.599999999999994" r="5.76"/>
      <circle cx="57.599999999999994" cy="57.599999999999994" r="5.76"/>
      <circle cx="86.4" cy="57.599999999999994" r="5.76"/>
      
      <!-- 第二行 -->
      <circle cx="19.200000000000003" cy="76.80000000000001" r="5.76"/>
      <circle cx="38.400000000000006" cy="76.80000000000001" r="5.76"/>
      <circle cx="57.599999999999994" cy="76.80000000000001" r="5.76"/>
      <circle cx="86.4" cy="76.80000000000001" r="5.76"/>
      
      <!-- 第三行 -->
      <circle cx="19.200000000000003" cy="96" r="5.76"/>
      <circle cx="38.400000000000006" cy="96" r="5.76"/>
      <circle cx="57.599999999999994" cy="96" r="5.76"/>
      <rect x="80.64" y="90.24" width="11.52" height="11.52" rx="1.92" fill="#EF4444"/>
    </g>
    
    <!-- 品牌文字 -->
    <text x="57.599999999999994" y="24.96" text-anchor="middle" fill="white" font-family="Arial, sans-serif" font-size="7.68" font-weight="bold">ZR</text>
  </g>
  
  <!-- 装饰元素 -->
  <circle cx="163.2" cy="28.799999999999997" r="5.76" fill="white" opacity="0.3"/>
  <circle cx="28.799999999999997" cy="163.2" r="3.84" fill="white" opacity="0.2"/>
</svg>